<diagram name="Wi-Fi/Hotspot Management System" type="drawio">
  <mxGraphModel dx="850" dy="500" grid="1" gridSize="10" guides="1" tooltips="1" connect="1" arrows="1" fold="1" page="1" pageScale="1" pageWidth="827" pageHeight="1169" math="0" shadow="0">
    <root>
      <mxCell id="0" />
      <mxCell id="1" parent="0" />
      <mxCell id="2" value="" style="rounded=0;whiteSpace=wrap;html=1;" vertex="1" connectable="0">
        <mxGeometry x="360" y="80" width="120" height="60" as="geometry" />
      </mxCell>
      <mxCell id="3" value="User" style="rounded=0;whiteSpace=wrap;html=1;" vertex="1" connectable="0">
        <mxGeometry x="160" y="180" width="80" height="40" as="geometry" />
      </mxCell>
      <mxCell id="4" value="System" style="rounded=0;whiteSpace=wrap;html=1;" vertex="1" connectable="0">
        <mxGeometry x="560" y="180" width="80" height="40" as="geometry" />
      </mxCell>
      <mxCell id="5" value="Wi-Fi/Hotspot Management System" style="rounded=0;whiteSpace=wrap;html=1;" vertex="1" connectable="0">
        <mxGeometry x="360" y="300" width="180" height="60" as="geometry" />
      </mxCell>
      <mxCell id="6" value="Authenticate user" style="rounded=0;whiteSpace=wrap;html=1;" vertex="1" connectable="0">
        <mxGeometry x="320" y="130" width="240" height="40" as="geometry" />
      </mxCell>
      <mxCell id="7" value="Send authentication request" style="rounded=0;whiteSpace=wrap;html=1;" vertex="1" connectable="0">
        <mxGeometry x="160" y="220" width="280" height="40" as="geometry" />
      </mxCell>
      <mxCell id="8" value="Process authentication request" style="rounded=0;whiteSpace=wrap;html=1;" vertex="1" connectable="0">
        <mxGeometry x="460" y="220" width="280" height="40" as="geometry" />
      </mxCell>
      <mxCell id="9" value="Grant access" style="rounded=0;whiteSpace=wrap;html=1;" vertex="1" connectable="0">
        <mxGeometry x="320" y="340" width="160" height="40" as="geometry" />
      </mxCell>
      <mxCell id="10" value="Provide Wi-Fi/Hotspot access" style="rounded=0;whiteSpace=wrap;html=1;" vertex="1" connectable="0">
        <mxGeometry x="260" y="400" width="280" height="40" as="geometry" />
      </mxCell>
      <mxCell id="11" value="Deny access" style="rounded=0;whiteSpace=wrap;html=1;" vertex="1" connectable="0">
        <mxGeometry x="320" y="460" width="160" height="40" as="geometry" />
      </mxCell>
      <mxCell id="12" value="Display access denied message" style="rounded=0;whiteSpace=wrap;html=1;" vertex="1" connectable="0">
        <mxGeometry x="260" y="520" width="280" height="40" as="geometry" />
      </mxCell>
      <mxCell id="13" value="" style="edgeStyle=orthogonalEdgeStyle;rounded=0;orthogonalLoop=1;jettySize=auto;html=1;exitX=0.5;exitY=1;exitDx=0;exitDy=0;" edge="1" parent="1" source="3" target="2">
        <mxGeometry relative="1" as="geometry" />
      </mxCell>
      <mxCell id="14" value="" style="edgeStyle=orthogonalEdgeStyle;rounded=0;orthogonalLoop=1;jettySize=auto;exitX=0.5;exitY=1;exitDx=0;exitDy=0;" edge="1" parent="1" source="2" target="5">
        <mxGeometry relative="1" as="geometry" />
      </mxCell>
      <mxCell id="15" value="" style="edgeStyle=orthogonalEdgeStyle;rounded=0;orthogonalLoop=1;jettySize=auto;html=1;exitX=0.5;exitY=0;exitDx=0;exitDy=0;" edge="1" parent="1" source="4" target="5">
        <mxGeometry relative="1" as="geometry" />
      </mxCell>
      <mxCell id="16" value="" style="edgeStyle=orthogonalEdgeStyle;rounded=0;orthogonalLoop=1;jettySize=auto;html=1;exitX=0;exitY=0.5;exitDx=0;exitDy=0;" edge="1" parent="1" source="5" target="6">
        <mxGeometry relative="1" as="geometry" />
      </mxCell>
      <mxCell id="17" value="" style="edgeStyle=orthogonalEdgeStyle;rounded=0;orthogonalLoop=1;jettySize=auto;html=1;exitX=0;exitY=0.5;exitDx=0;exitDy=0;" edge="1" parent="1" source="3" target="7">
        <mxGeometry relative="1" as="geometry" />
      </mxCell>
      <mxCell id="18" value="" style="edgeStyle=orthogonalEdgeStyle;rounded=0;orthogonalLoop=1;jettySize=auto;html=1;exitX=0;exitY=0.5;exitDx=0;exitDy=0;" edge="1" parent="1" source="7" target="8">
        <mxGeometry relative="1" as="geometry" />
      </mxCell>
      <mxCell id="19" value="" style="edgeStyle=orthogonalEdgeStyle;rounded=0;orthogonalLoop=1;jettySize=auto;html=1;exitX=0;exitY=0.5;exitDx=0;exitDy=0;" edge="1" parent="1" source="8" target="9">
        <mxGeometry relative="1" as="geometry" />
      </mxCell>
      <mxCell id="20" value="" style="edgeStyle=orthogonalEdgeStyle;rounded=0;orthogonalLoop=1;jettySize=auto;html=1;exitX=0;exitY=0.5;exitDx=0;exitDy=0;" edge="1" parent="1" source="9" target="10">
        <mxGeometry relative="1" as="geometry" />
      </mxCell>
      <mxCell id="21" value="" style="edgeStyle=orthogonalEdgeStyle;rounded=0;orthogonalLoop=1;jettySize=auto;html=1;exitX=0;exitY=0.5;exitDx=0;exitDy=0;" edge="1" parent="1" source="9" target="11">
        <mxGeometry relative="1" as="geometry" />
      </mxCell>
      <mxCell id="22" value="" style="edgeStyle=orthogonalEdgeStyle;rounded=0;orthogonalLoop=1;jettySize=auto;html=1;exitX=0;exitY=0.5;exitDx=0;exitDy=0;" edge="1" parent="1" source="11" target="12">
        <mxGeometry relative="1" as="geometry" />
      </mxCell>
    </root>
  </mxGraphModel>
</diagram>
